STARTFONT 2.1
COMMENT Exported by Fony v1.4.7
FONT CStadiumBold
SIZE 18 100 100
FONTBOUNDINGBOX 12 17 0 -4
STARTPROPERTIES 6
COPYRIGHT "Public domain font.  Share and enjoy."
RESOLUTION_X 100
RESOLUTION_Y 100
FONT_ASCENT 14
FONT_DESCENT 4
DEFAULT_CHAR 0
ENDPROPERTIES
CHARS 256
STARTCHAR 000
ENCODING 0
SWIDTH 576 0
DWIDTH 8 0
BBX 7 10 0 0
BITMAP
DA
02
80
82
02
80
82
02
80
B6
ENDCHAR
STARTCHAR 001
ENCODING 1
SWIDTH 72 0
DWIDTH 1 0
BBX 0 0 0 0
BITMAP
ENDCHAR
STARTCHAR 002
ENCODING 2
SWIDTH 72 0
DWIDTH 1 0
BBX 0 0 0 0
BITMAP
ENDCHAR
STARTCHAR 003
ENCODING 3
SWIDTH 72 0
DWIDTH 1 0
BBX 0 0 0 0
BITMAP
ENDCHAR
STARTCHAR 004
ENCODING 4
SWIDTH 72 0
DWIDTH 1 0
BBX 0 0 0 0
BITMAP
ENDCHAR
STARTCHAR 005
ENCODING 5
SWIDTH 72 0
DWIDTH 1 0
BBX 0 0 0 0
BITMAP
ENDCHAR
STARTCHAR 006
ENCODING 6
SWIDTH 72 0
DWIDTH 1 0
BBX 0 0 0 0
BITMAP
ENDCHAR
STARTCHAR 007
ENCODING 7
SWIDTH 72 0
DWIDTH 1 0
BBX 0 0 0 0
BITMAP
ENDCHAR
STARTCHAR 008
ENCODING 8
SWIDTH 72 0
DWIDTH 1 0
BBX 0 0 0 0
BITMAP
ENDCHAR
STARTCHAR 009
ENCODING 9
SWIDTH 72 0
DWIDTH 1 0
BBX 0 0 0 0
BITMAP
ENDCHAR
STARTCHAR 010
ENCODING 10
SWIDTH 72 0
DWIDTH 1 0
BBX 0 0 0 0
BITMAP
ENDCHAR
STARTCHAR 011
ENCODING 11
SWIDTH 72 0
DWIDTH 1 0
BBX 0 0 0 0
BITMAP
ENDCHAR
STARTCHAR 012
ENCODING 12
SWIDTH 72 0
DWIDTH 1 0
BBX 0 0 0 0
BITMAP
ENDCHAR
STARTCHAR 013
ENCODING 13
SWIDTH 72 0
DWIDTH 1 0
BBX 0 0 0 0
BITMAP
ENDCHAR
STARTCHAR 014
ENCODING 14
SWIDTH 72 0
DWIDTH 1 0
BBX 0 0 0 0
BITMAP
ENDCHAR
STARTCHAR 015
ENCODING 15
SWIDTH 72 0
DWIDTH 1 0
BBX 0 0 0 0
BITMAP
ENDCHAR
STARTCHAR 016
ENCODING 16
SWIDTH 72 0
DWIDTH 1 0
BBX 0 0 0 0
BITMAP
ENDCHAR
STARTCHAR 017
ENCODING 17
SWIDTH 72 0
DWIDTH 1 0
BBX 0 0 0 0
BITMAP
ENDCHAR
STARTCHAR 018
ENCODING 18
SWIDTH 72 0
DWIDTH 1 0
BBX 0 0 0 0
BITMAP
ENDCHAR
STARTCHAR 019
ENCODING 19
SWIDTH 72 0
DWIDTH 1 0
BBX 0 0 0 0
BITMAP
ENDCHAR
STARTCHAR 020
ENCODING 20
SWIDTH 72 0
DWIDTH 1 0
BBX 0 0 0 0
BITMAP
ENDCHAR
STARTCHAR 021
ENCODING 21
SWIDTH 72 0
DWIDTH 1 0
BBX 0 0 0 0
BITMAP
ENDCHAR
STARTCHAR 022
ENCODING 22
SWIDTH 72 0
DWIDTH 1 0
BBX 0 0 0 0
BITMAP
ENDCHAR
STARTCHAR 023
ENCODING 23
SWIDTH 72 0
DWIDTH 1 0
BBX 0 0 0 0
BITMAP
ENDCHAR
STARTCHAR 024
ENCODING 24
SWIDTH 72 0
DWIDTH 1 0
BBX 0 0 0 0
BITMAP
ENDCHAR
STARTCHAR 025
ENCODING 25
SWIDTH 72 0
DWIDTH 1 0
BBX 0 0 0 0
BITMAP
ENDCHAR
STARTCHAR 026
ENCODING 26
SWIDTH 72 0
DWIDTH 1 0
BBX 0 0 0 0
BITMAP
ENDCHAR
STARTCHAR 027
ENCODING 27
SWIDTH 72 0
DWIDTH 1 0
BBX 0 0 0 0
BITMAP
ENDCHAR
STARTCHAR 028
ENCODING 28
SWIDTH 72 0
DWIDTH 1 0
BBX 0 0 0 0
BITMAP
ENDCHAR
STARTCHAR 029
ENCODING 29
SWIDTH 72 0
DWIDTH 1 0
BBX 0 0 0 0
BITMAP
ENDCHAR
STARTCHAR 030
ENCODING 30
SWIDTH 72 0
DWIDTH 1 0
BBX 0 0 0 0
BITMAP
ENDCHAR
STARTCHAR 031
ENCODING 31
SWIDTH 72 0
DWIDTH 1 0
BBX 0 0 0 0
BITMAP
ENDCHAR
STARTCHAR 032
ENCODING 32
SWIDTH 288 0
DWIDTH 4 0
BBX 0 0 0 0
BITMAP
ENDCHAR
STARTCHAR 033
ENCODING 33
SWIDTH 216 0
DWIDTH 3 0
BBX 2 10 0 0
BITMAP
C0
C0
C0
C0
C0
C0
C0
00
C0
C0
ENDCHAR
STARTCHAR 034
ENCODING 34
SWIDTH 432 0
DWIDTH 6 0
BBX 5 3 0 7
BITMAP
D8
D8
D8
ENDCHAR
STARTCHAR 035
ENCODING 35
SWIDTH 648 0
DWIDTH 9 0
BBX 8 10 0 0
BITMAP
66
66
FF
FF
66
66
FF
FF
66
66
ENDCHAR
STARTCHAR 036
ENCODING 36
SWIDTH 648 0
DWIDTH 9 0
BBX 8 10 0 0
BITMAP
18
7F
FF
D8
FE
7F
1B
FF
FE
18
ENDCHAR
STARTCHAR 037
ENCODING 37
SWIDTH 792 0
DWIDTH 11 0
BBX 10 10 0 0
BITMAP
70C0
D9C0
DB80
7700
0E00
1C00
3B80
76C0
E6C0
C380
ENDCHAR
STARTCHAR 038
ENCODING 38
SWIDTH 648 0
DWIDTH 9 0
BBX 8 10 0 0
BITMAP
78
FC
CC
E0
73
FF
DE
CE
FF
7B
ENDCHAR
STARTCHAR 039
ENCODING 39
SWIDTH 216 0
DWIDTH 3 0
BBX 2 3 0 7
BITMAP
C0
C0
C0
ENDCHAR
STARTCHAR 040
ENCODING 40
SWIDTH 288 0
DWIDTH 4 0
BBX 3 10 0 0
BITMAP
60
E0
C0
C0
C0
C0
C0
C0
E0
60
ENDCHAR
STARTCHAR 041
ENCODING 41
SWIDTH 288 0
DWIDTH 4 0
BBX 3 10 0 0
BITMAP
C0
E0
60
60
60
60
60
60
E0
C0
ENDCHAR
STARTCHAR 042
ENCODING 42
SWIDTH 792 0
DWIDTH 11 0
BBX 10 10 0 0
BITMAP
0C00
6D80
7F80
3F00
FFC0
FFC0
3F00
7F80
6D80
0C00
ENDCHAR
STARTCHAR 043
ENCODING 43
SWIDTH 648 0
DWIDTH 9 0
BBX 8 8 0 1
BITMAP
18
18
18
FF
FF
18
18
18
ENDCHAR
STARTCHAR 044
ENCODING 44
SWIDTH 288 0
DWIDTH 4 0
BBX 3 5 0 -3
BITMAP
60
60
60
E0
C0
ENDCHAR
STARTCHAR 045
ENCODING 45
SWIDTH 504 0
DWIDTH 7 0
BBX 6 2 0 4
BITMAP
FC
FC
ENDCHAR
STARTCHAR 046
ENCODING 46
SWIDTH 216 0
DWIDTH 3 0
BBX 2 2 0 0
BITMAP
C0
C0
ENDCHAR
STARTCHAR 047
ENCODING 47
SWIDTH 360 0
DWIDTH 5 0
BBX 4 10 0 0
BITMAP
30
30
30
70
60
60
E0
C0
C0
C0
ENDCHAR
STARTCHAR 048
ENCODING 48
SWIDTH 504 0
DWIDTH 7 0
BBX 6 10 0 0
BITMAP
78
FC
CC
CC
CC
CC
CC
CC
FC
78
ENDCHAR
STARTCHAR 049
ENCODING 49
SWIDTH 360 0
DWIDTH 5 0
BBX 4 10 0 0
BITMAP
60
E0
E0
60
60
60
60
60
F0
F0
ENDCHAR
STARTCHAR 050
ENCODING 50
SWIDTH 504 0
DWIDTH 7 0
BBX 6 10 0 0
BITMAP
78
FC
CC
0C
1C
38
70
E0
FC
FC
ENDCHAR
STARTCHAR 051
ENCODING 51
SWIDTH 504 0
DWIDTH 7 0
BBX 6 10 0 0
BITMAP
78
FC
CC
0C
38
38
0C
CC
FC
78
ENDCHAR
STARTCHAR 052
ENCODING 52
SWIDTH 504 0
DWIDTH 7 0
BBX 6 10 0 0
BITMAP
CC
CC
CC
CC
FC
FC
0C
0C
0C
0C
ENDCHAR
STARTCHAR 053
ENCODING 53
SWIDTH 504 0
DWIDTH 7 0
BBX 6 10 0 0
BITMAP
FC
FC
C0
C0
F8
FC
0C
0C
FC
F8
ENDCHAR
STARTCHAR 054
ENCODING 54
SWIDTH 504 0
DWIDTH 7 0
BBX 6 10 0 0
BITMAP
78
F8
C0
C0
F8
FC
CC
CC
FC
78
ENDCHAR
STARTCHAR 055
ENCODING 55
SWIDTH 504 0
DWIDTH 7 0
BBX 6 10 0 0
BITMAP
FC
FC
0C
1C
38
70
60
60
60
60
ENDCHAR
STARTCHAR 056
ENCODING 56
SWIDTH 504 0
DWIDTH 7 0
BBX 6 10 0 0
BITMAP
78
FC
CC
CC
78
FC
CC
CC
FC
78
ENDCHAR
STARTCHAR 057
ENCODING 57
SWIDTH 504 0
DWIDTH 7 0
BBX 6 10 0 0
BITMAP
78
FC
CC
CC
FC
7C
0C
0C
7C
78
ENDCHAR
STARTCHAR 058
ENCODING 58
SWIDTH 216 0
DWIDTH 3 0
BBX 2 7 0 0
BITMAP
C0
C0
00
00
00
C0
C0
ENDCHAR
STARTCHAR 059
ENCODING 59
SWIDTH 288 0
DWIDTH 4 0
BBX 3 10 0 -3
BITMAP
60
60
00
00
00
60
60
60
E0
C0
ENDCHAR
STARTCHAR 060
ENCODING 60
SWIDTH 432 0
DWIDTH 6 0
BBX 5 8 0 1
BITMAP
18
38
70
E0
E0
70
38
18
ENDCHAR
STARTCHAR 061
ENCODING 61
SWIDTH 504 0
DWIDTH 7 0
BBX 6 6 0 2
BITMAP
FC
FC
00
00
FC
FC
ENDCHAR
STARTCHAR 062
ENCODING 62
SWIDTH 432 0
DWIDTH 6 0
BBX 5 8 0 1
BITMAP
C0
E0
70
38
38
70
E0
C0
ENDCHAR
STARTCHAR 063
ENCODING 63
SWIDTH 432 0
DWIDTH 6 0
BBX 5 10 0 0
BITMAP
F0
F8
18
38
70
60
60
00
60
60
ENDCHAR
STARTCHAR 064
ENCODING 64
SWIDTH 864 0
DWIDTH 12 0
BBX 11 10 0 0
BITMAP
3F80
7FC0
E0E0
CE60
DB60
DB60
CFE0
E000
7FC0
3F80
ENDCHAR
STARTCHAR 065
ENCODING 65
SWIDTH 504 0
DWIDTH 7 0
BBX 6 10 0 0
BITMAP
78
FC
CC
CC
FC
FC
CC
CC
CC
CC
ENDCHAR
STARTCHAR 066
ENCODING 66
SWIDTH 504 0
DWIDTH 7 0
BBX 6 10 0 0
BITMAP
F8
FC
CC
CC
F8
F8
CC
CC
FC
F8
ENDCHAR
STARTCHAR 067
ENCODING 67
SWIDTH 504 0
DWIDTH 7 0
BBX 6 10 0 0
BITMAP
78
FC
CC
C0
C0
C0
C0
CC
FC
78
ENDCHAR
STARTCHAR 068
ENCODING 68
SWIDTH 504 0
DWIDTH 7 0
BBX 6 10 0 0
BITMAP
F8
FC
CC
CC
CC
CC
CC
CC
FC
F8
ENDCHAR
STARTCHAR 069
ENCODING 69
SWIDTH 504 0
DWIDTH 7 0
BBX 6 10 0 0
BITMAP
FC
FC
C0
C0
F0
F0
C0
C0
FC
FC
ENDCHAR
STARTCHAR 070
ENCODING 70
SWIDTH 504 0
DWIDTH 7 0
BBX 6 10 0 0
BITMAP
FC
FC
C0
C0
F0
F0
C0
C0
C0
C0
ENDCHAR
STARTCHAR 071
ENCODING 71
SWIDTH 504 0
DWIDTH 7 0
BBX 6 10 0 0
BITMAP
78
FC
CC
C0
DC
DC
CC
CC
FC
78
ENDCHAR
STARTCHAR 072
ENCODING 72
SWIDTH 504 0
DWIDTH 7 0
BBX 6 10 0 0
BITMAP
CC
CC
CC
CC
FC
FC
CC
CC
CC
CC
ENDCHAR
STARTCHAR 073
ENCODING 73
SWIDTH 216 0
DWIDTH 3 0
BBX 2 10 0 0
BITMAP
C0
C0
C0
C0
C0
C0
C0
C0
C0
C0
ENDCHAR
STARTCHAR 074
ENCODING 74
SWIDTH 504 0
DWIDTH 7 0
BBX 6 10 0 0
BITMAP
0C
0C
0C
0C
0C
0C
0C
CC
FC
78
ENDCHAR
STARTCHAR 075
ENCODING 75
SWIDTH 504 0
DWIDTH 7 0
BBX 6 10 0 0
BITMAP
CC
CC
CC
D8
F0
F0
D8
CC
CC
CC
ENDCHAR
STARTCHAR 076
ENCODING 76
SWIDTH 504 0
DWIDTH 7 0
BBX 6 10 0 0
BITMAP
C0
C0
C0
C0
C0
C0
C0
C0
FC
FC
ENDCHAR
STARTCHAR 077
ENCODING 77
SWIDTH 648 0
DWIDTH 9 0
BBX 8 10 0 0
BITMAP
C3
E7
FF
FF
DB
C3
C3
C3
C3
C3
ENDCHAR
STARTCHAR 078
ENCODING 78
SWIDTH 576 0
DWIDTH 8 0
BBX 7 10 0 0
BITMAP
C6
C6
E6
F6
FE
DE
CE
C6
C6
C6
ENDCHAR
STARTCHAR 079
ENCODING 79
SWIDTH 504 0
DWIDTH 7 0
BBX 6 10 0 0
BITMAP
78
FC
CC
CC
CC
CC
CC
CC
FC
78
ENDCHAR
STARTCHAR 080
ENCODING 80
SWIDTH 504 0
DWIDTH 7 0
BBX 6 10 0 0
BITMAP
F8
FC
CC
CC
FC
F8
C0
C0
C0
C0
ENDCHAR
STARTCHAR 081
ENCODING 81
SWIDTH 504 0
DWIDTH 7 0
BBX 6 10 0 0
BITMAP
78
FC
CC
CC
CC
CC
CC
DC
FC
7C
ENDCHAR
STARTCHAR 082
ENCODING 82
SWIDTH 504 0
DWIDTH 7 0
BBX 6 10 0 0
BITMAP
F8
FC
CC
CC
FC
F8
D8
CC
CC
CC
ENDCHAR
STARTCHAR 083
ENCODING 83
SWIDTH 504 0
DWIDTH 7 0
BBX 6 10 0 0
BITMAP
78
FC
CC
C0
F8
7C
0C
CC
FC
78
ENDCHAR
STARTCHAR 084
ENCODING 84
SWIDTH 504 0
DWIDTH 7 0
BBX 6 10 0 0
BITMAP
FC
FC
30
30
30
30
30
30
30
30
ENDCHAR
STARTCHAR 085
ENCODING 85
SWIDTH 504 0
DWIDTH 7 0
BBX 6 10 0 0
BITMAP
CC
CC
CC
CC
CC
CC
CC
CC
FC
78
ENDCHAR
STARTCHAR 086
ENCODING 86
SWIDTH 576 0
DWIDTH 8 0
BBX 7 10 0 0
BITMAP
C6
C6
C6
C6
C6
C6
EE
7C
38
10
ENDCHAR
STARTCHAR 087
ENCODING 87
SWIDTH 648 0
DWIDTH 9 0
BBX 8 10 0 0
BITMAP
C3
C3
C3
C3
C3
DB
FF
FF
E7
C3
ENDCHAR
STARTCHAR 088
ENCODING 88
SWIDTH 576 0
DWIDTH 8 0
BBX 7 10 0 0
BITMAP
C6
C6
EE
7C
38
38
7C
EE
C6
C6
ENDCHAR
STARTCHAR 089
ENCODING 89
SWIDTH 504 0
DWIDTH 7 0
BBX 6 10 0 0
BITMAP
CC
CC
CC
CC
78
78
30
30
30
30
ENDCHAR
STARTCHAR 090
ENCODING 90
SWIDTH 504 0
DWIDTH 7 0
BBX 6 10 0 0
BITMAP
FC
FC
0C
1C
38
70
E0
C0
FC
FC
ENDCHAR
STARTCHAR 091
ENCODING 91
SWIDTH 288 0
DWIDTH 4 0
BBX 3 10 0 0
BITMAP
E0
E0
C0
C0
C0
C0
C0
C0
E0
E0
ENDCHAR
STARTCHAR 092
ENCODING 92
SWIDTH 360 0
DWIDTH 5 0
BBX 4 10 0 0
BITMAP
C0
C0
C0
E0
60
60
70
30
30
30
ENDCHAR
STARTCHAR 093
ENCODING 93
SWIDTH 288 0
DWIDTH 4 0
BBX 3 10 0 0
BITMAP
E0
E0
60
60
60
60
60
60
E0
E0
ENDCHAR
STARTCHAR 094
ENCODING 94
SWIDTH 576 0
DWIDTH 8 0
BBX 7 4 0 6
BITMAP
38
7C
EE
C6
ENDCHAR
STARTCHAR 095
ENCODING 95
SWIDTH 504 0
DWIDTH 7 0
BBX 7 2 0 -1
BITMAP
FE
FE
ENDCHAR
STARTCHAR 096
ENCODING 96
SWIDTH 360 0
DWIDTH 5 0
BBX 4 3 0 7
BITMAP
C0
60
30
ENDCHAR
STARTCHAR 097
ENCODING 97
SWIDTH 504 0
DWIDTH 7 0
BBX 6 7 0 0
BITMAP
7C
FC
CC
CC
CC
FC
7C
ENDCHAR
STARTCHAR 098
ENCODING 98
SWIDTH 504 0
DWIDTH 7 0
BBX 6 10 0 0
BITMAP
C0
C0
C0
F8
FC
CC
CC
CC
FC
F8
ENDCHAR
STARTCHAR 099
ENCODING 99
SWIDTH 504 0
DWIDTH 7 0
BBX 6 7 0 0
BITMAP
7C
FC
C0
C0
C0
FC
7C
ENDCHAR
STARTCHAR 100
ENCODING 100
SWIDTH 504 0
DWIDTH 7 0
BBX 6 10 0 0
BITMAP
0C
0C
0C
7C
FC
CC
CC
CC
FC
7C
ENDCHAR
STARTCHAR 101
ENCODING 101
SWIDTH 504 0
DWIDTH 7 0
BBX 6 7 0 0
BITMAP
78
FC
CC
FC
C0
FC
7C
ENDCHAR
STARTCHAR 102
ENCODING 102
SWIDTH 432 0
DWIDTH 6 0
BBX 5 10 0 0
BITMAP
38
78
60
F0
F0
60
60
60
60
60
ENDCHAR
STARTCHAR 103
ENCODING 103
SWIDTH 504 0
DWIDTH 7 0
BBX 6 10 0 -3
BITMAP
7C
FC
CC
CC
CC
FC
7C
0C
7C
78
ENDCHAR
STARTCHAR 104
ENCODING 104
SWIDTH 504 0
DWIDTH 7 0
BBX 6 10 0 0
BITMAP
C0
C0
C0
F8
FC
CC
CC
CC
CC
CC
ENDCHAR
STARTCHAR 105
ENCODING 105
SWIDTH 216 0
DWIDTH 3 0
BBX 2 10 0 0
BITMAP
C0
C0
00
C0
C0
C0
C0
C0
C0
C0
ENDCHAR
STARTCHAR 106
ENCODING 106
SWIDTH 288 0
DWIDTH 4 0
BBX 3 13 0 -3
BITMAP
60
60
00
60
60
60
60
60
60
60
60
E0
C0
ENDCHAR
STARTCHAR 107
ENCODING 107
SWIDTH 504 0
DWIDTH 7 0
BBX 6 10 0 0
BITMAP
C0
C0
C0
C0
CC
D8
F0
F0
D8
CC
ENDCHAR
STARTCHAR 108
ENCODING 108
SWIDTH 216 0
DWIDTH 3 0
BBX 2 10 0 0
BITMAP
C0
C0
C0
C0
C0
C0
C0
C0
C0
C0
ENDCHAR
STARTCHAR 109
ENCODING 109
SWIDTH 648 0
DWIDTH 9 0
BBX 8 7 0 0
BITMAP
7E
FF
DB
DB
DB
DB
DB
ENDCHAR
STARTCHAR 110
ENCODING 110
SWIDTH 504 0
DWIDTH 7 0
BBX 6 7 0 0
BITMAP
F8
FC
CC
CC
CC
CC
CC
ENDCHAR
STARTCHAR 111
ENCODING 111
SWIDTH 504 0
DWIDTH 7 0
BBX 6 7 0 0
BITMAP
78
FC
CC
CC
CC
FC
78
ENDCHAR
STARTCHAR 112
ENCODING 112
SWIDTH 504 0
DWIDTH 7 0
BBX 6 10 0 -3
BITMAP
F8
FC
CC
CC
CC
FC
F8
C0
C0
C0
ENDCHAR
STARTCHAR 113
ENCODING 113
SWIDTH 504 0
DWIDTH 7 0
BBX 6 10 0 -3
BITMAP
7C
FC
CC
CC
CC
FC
7C
0C
0C
0C
ENDCHAR
STARTCHAR 114
ENCODING 114
SWIDTH 432 0
DWIDTH 6 0
BBX 5 7 0 0
BITMAP
D8
E0
C0
C0
C0
C0
C0
ENDCHAR
STARTCHAR 115
ENCODING 115
SWIDTH 504 0
DWIDTH 7 0
BBX 6 7 0 0
BITMAP
7C
FC
C0
78
0C
FC
F8
ENDCHAR
STARTCHAR 116
ENCODING 116
SWIDTH 360 0
DWIDTH 5 0
BBX 4 10 0 0
BITMAP
60
60
60
F0
F0
60
60
60
70
30
ENDCHAR
STARTCHAR 117
ENCODING 117
SWIDTH 504 0
DWIDTH 7 0
BBX 6 7 0 0
BITMAP
CC
CC
CC
CC
CC
FC
78
ENDCHAR
STARTCHAR 118
ENCODING 118
SWIDTH 504 0
DWIDTH 7 0
BBX 6 7 0 0
BITMAP
CC
CC
CC
CC
FC
78
30
ENDCHAR
STARTCHAR 119
ENCODING 119
SWIDTH 648 0
DWIDTH 9 0
BBX 8 7 0 0
BITMAP
DB
DB
DB
DB
DB
FF
7E
ENDCHAR
STARTCHAR 120
ENCODING 120
SWIDTH 504 0
DWIDTH 7 0
BBX 6 7 0 0
BITMAP
CC
CC
FC
78
FC
CC
CC
ENDCHAR
STARTCHAR 121
ENCODING 121
SWIDTH 504 0
DWIDTH 7 0
BBX 6 10 0 -3
BITMAP
CC
CC
CC
CC
CC
FC
78
30
30
30
ENDCHAR
STARTCHAR 122
ENCODING 122
SWIDTH 432 0
DWIDTH 6 0
BBX 5 7 0 0
BITMAP
F8
F8
38
70
E0
F8
F8
ENDCHAR
STARTCHAR 123
ENCODING 123
SWIDTH 432 0
DWIDTH 6 0
BBX 5 10 0 0
BITMAP
38
78
60
60
C0
C0
60
60
78
38
ENDCHAR
STARTCHAR 124
ENCODING 124
SWIDTH 216 0
DWIDTH 3 0
BBX 2 10 0 0
BITMAP
C0
C0
C0
C0
C0
C0
C0
C0
C0
C0
ENDCHAR
STARTCHAR 125
ENCODING 125
SWIDTH 432 0
DWIDTH 6 0
BBX 5 10 0 0
BITMAP
E0
F0
30
30
18
18
30
30
F0
E0
ENDCHAR
STARTCHAR 126
ENCODING 126
SWIDTH 648 0
DWIDTH 9 0
BBX 8 3 0 7
BITMAP
7B
FF
DE
ENDCHAR
STARTCHAR 127
ENCODING 127
SWIDTH 72 0
DWIDTH 1 0
BBX 0 0 0 0
BITMAP
ENDCHAR
STARTCHAR 128
ENCODING 128
SWIDTH 72 0
DWIDTH 1 0
BBX 0 0 0 0
BITMAP
ENDCHAR
STARTCHAR 129
ENCODING 129
SWIDTH 72 0
DWIDTH 1 0
BBX 0 0 0 0
BITMAP
ENDCHAR
STARTCHAR 130
ENCODING 130
SWIDTH 72 0
DWIDTH 1 0
BBX 0 0 0 0
BITMAP
ENDCHAR
STARTCHAR 131
ENCODING 131
SWIDTH 72 0
DWIDTH 1 0
BBX 0 0 0 0
BITMAP
ENDCHAR
STARTCHAR 132
ENCODING 132
SWIDTH 72 0
DWIDTH 1 0
BBX 0 0 0 0
BITMAP
ENDCHAR
STARTCHAR 133
ENCODING 133
SWIDTH 72 0
DWIDTH 1 0
BBX 0 0 0 0
BITMAP
ENDCHAR
STARTCHAR 134
ENCODING 134
SWIDTH 72 0
DWIDTH 1 0
BBX 0 0 0 0
BITMAP
ENDCHAR
STARTCHAR 135
ENCODING 135
SWIDTH 72 0
DWIDTH 1 0
BBX 0 0 0 0
BITMAP
ENDCHAR
STARTCHAR 136
ENCODING 136
SWIDTH 72 0
DWIDTH 1 0
BBX 0 0 0 0
BITMAP
ENDCHAR
STARTCHAR 137
ENCODING 137
SWIDTH 72 0
DWIDTH 1 0
BBX 0 0 0 0
BITMAP
ENDCHAR
STARTCHAR 138
ENCODING 138
SWIDTH 72 0
DWIDTH 1 0
BBX 0 0 0 0
BITMAP
ENDCHAR
STARTCHAR 139
ENCODING 139
SWIDTH 72 0
DWIDTH 1 0
BBX 0 0 0 0
BITMAP
ENDCHAR
STARTCHAR 140
ENCODING 140
SWIDTH 72 0
DWIDTH 1 0
BBX 0 0 0 0
BITMAP
ENDCHAR
STARTCHAR 141
ENCODING 141
SWIDTH 72 0
DWIDTH 1 0
BBX 0 0 0 0
BITMAP
ENDCHAR
STARTCHAR 142
ENCODING 142
SWIDTH 72 0
DWIDTH 1 0
BBX 0 0 0 0
BITMAP
ENDCHAR
STARTCHAR 143
ENCODING 143
SWIDTH 72 0
DWIDTH 1 0
BBX 0 0 0 0
BITMAP
ENDCHAR
STARTCHAR 144
ENCODING 144
SWIDTH 72 0
DWIDTH 1 0
BBX 0 0 0 0
BITMAP
ENDCHAR
STARTCHAR 145
ENCODING 145
SWIDTH 72 0
DWIDTH 1 0
BBX 0 0 0 0
BITMAP
ENDCHAR
STARTCHAR 146
ENCODING 146
SWIDTH 72 0
DWIDTH 1 0
BBX 0 0 0 0
BITMAP
ENDCHAR
STARTCHAR 147
ENCODING 147
SWIDTH 72 0
DWIDTH 1 0
BBX 0 0 0 0
BITMAP
ENDCHAR
STARTCHAR 148
ENCODING 148
SWIDTH 72 0
DWIDTH 1 0
BBX 0 0 0 0
BITMAP
ENDCHAR
STARTCHAR 149
ENCODING 149
SWIDTH 288 0
DWIDTH 4 0
BBX 3 3 0 5
BITMAP
E0
E0
E0
ENDCHAR
STARTCHAR 150
ENCODING 150
SWIDTH 72 0
DWIDTH 1 0
BBX 0 0 0 0
BITMAP
ENDCHAR
STARTCHAR 151
ENCODING 151
SWIDTH 72 0
DWIDTH 1 0
BBX 0 0 0 0
BITMAP
ENDCHAR
STARTCHAR 152
ENCODING 152
SWIDTH 72 0
DWIDTH 1 0
BBX 0 0 0 0
BITMAP
ENDCHAR
STARTCHAR 153
ENCODING 153
SWIDTH 72 0
DWIDTH 1 0
BBX 0 0 0 0
BITMAP
ENDCHAR
STARTCHAR 154
ENCODING 154
SWIDTH 72 0
DWIDTH 1 0
BBX 0 0 0 0
BITMAP
ENDCHAR
STARTCHAR 155
ENCODING 155
SWIDTH 72 0
DWIDTH 1 0
BBX 0 0 0 0
BITMAP
ENDCHAR
STARTCHAR 156
ENCODING 156
SWIDTH 72 0
DWIDTH 1 0
BBX 0 0 0 0
BITMAP
ENDCHAR
STARTCHAR 157
ENCODING 157
SWIDTH 72 0
DWIDTH 1 0
BBX 0 0 0 0
BITMAP
ENDCHAR
STARTCHAR 158
ENCODING 158
SWIDTH 72 0
DWIDTH 1 0
BBX 0 0 0 0
BITMAP
ENDCHAR
STARTCHAR 159
ENCODING 159
SWIDTH 72 0
DWIDTH 1 0
BBX 0 0 0 0
BITMAP
ENDCHAR
STARTCHAR 160
ENCODING 160
SWIDTH 288 0
DWIDTH 4 0
BBX 0 0 0 0
BITMAP
ENDCHAR
STARTCHAR 161
ENCODING 161
SWIDTH 216 0
DWIDTH 3 0
BBX 2 10 0 0
BITMAP
C0
C0
00
C0
C0
C0
C0
C0
C0
C0
ENDCHAR
STARTCHAR 162
ENCODING 162
SWIDTH 576 0
DWIDTH 8 0
BBX 7 9 0 -1
BITMAP
18
7E
FE
D8
D8
D8
FE
7E
18
ENDCHAR
STARTCHAR 163
ENCODING 163
SWIDTH 504 0
DWIDTH 7 0
BBX 6 10 0 0
BITMAP
3C
7C
60
60
F0
F0
60
E0
FC
FC
ENDCHAR
STARTCHAR 164
ENCODING 164
SWIDTH 648 0
DWIDTH 9 0
BBX 7 7 1 2
BITMAP
C6
FE
6C
44
6C
FE
C6
ENDCHAR
STARTCHAR 165
ENCODING 165
SWIDTH 504 0
DWIDTH 7 0
BBX 6 10 0 0
BITMAP
CC
CC
CC
FC
78
30
FC
30
FC
30
ENDCHAR
STARTCHAR 166
ENCODING 166
SWIDTH 216 0
DWIDTH 3 0
BBX 2 11 0 -1
BITMAP
C0
C0
C0
C0
C0
00
C0
C0
C0
C0
C0
ENDCHAR
STARTCHAR 167
ENCODING 167
SWIDTH 576 0
DWIDTH 8 0
BBX 6 11 1 -1
BITMAP
7C
FC
C0
78
FC
CC
FC
78
0C
FC
F8
ENDCHAR
STARTCHAR 168
ENCODING 168
SWIDTH 432 0
DWIDTH 6 0
BBX 5 2 0 11
BITMAP
D8
D8
ENDCHAR
STARTCHAR 169
ENCODING 169
SWIDTH 792 0
DWIDTH 11 0
BBX 10 10 0 0
BITMAP
3F00
7F80
E1C0
CEC0
D8C0
D8C0
CEC0
E1C0
7F80
3F00
ENDCHAR
STARTCHAR 170
ENCODING 170
SWIDTH 504 0
DWIDTH 7 0
BBX 5 8 1 2
BITMAP
78
F8
D8
F8
78
00
F8
F8
ENDCHAR
STARTCHAR 171
ENCODING 171
SWIDTH 720 0
DWIDTH 10 0
BBX 9 8 0 1
BITMAP
1980
3B80
7700
EE00
EE00
7700
3B80
1980
ENDCHAR
STARTCHAR 172
ENCODING 172
SWIDTH 576 0
DWIDTH 8 0
BBX 7 5 0 2
BITMAP
FE
FE
06
06
06
ENDCHAR
STARTCHAR 173
ENCODING 173
SWIDTH 504 0
DWIDTH 7 0
BBX 6 2 0 3
BITMAP
FC
FC
ENDCHAR
STARTCHAR 174
ENCODING 174
SWIDTH 792 0
DWIDTH 11 0
BBX 10 10 0 0
BITMAP
3F00
7F80
E1C0
DCC0
D2C0
DCC0
D2C0
E1C0
7F80
3F00
ENDCHAR
STARTCHAR 175
ENCODING 175
SWIDTH 504 0
DWIDTH 7 0
BBX 6 2 0 9
BITMAP
FC
FC
ENDCHAR
STARTCHAR 176
ENCODING 176
SWIDTH 432 0
DWIDTH 6 0
BBX 5 6 0 4
BITMAP
70
F8
D8
D8
F8
70
ENDCHAR
STARTCHAR 177
ENCODING 177
SWIDTH 504 0
DWIDTH 7 0
BBX 6 10 0 0
BITMAP
30
30
FC
FC
30
30
00
00
FC
FC
ENDCHAR
STARTCHAR 178
ENCODING 178
SWIDTH 432 0
DWIDTH 6 0
BBX 5 7 0 4
BITMAP
70
F8
D8
30
60
F8
F8
ENDCHAR
STARTCHAR 179
ENCODING 179
SWIDTH 432 0
DWIDTH 6 0
BBX 5 7 0 4
BITMAP
F0
F8
18
70
18
F8
F0
ENDCHAR
STARTCHAR 180
ENCODING 180
SWIDTH 648 0
DWIDTH 9 0
BBX 4 3 2 10
BITMAP
30
60
C0
ENDCHAR
STARTCHAR 181
ENCODING 181
SWIDTH 576 0
DWIDTH 8 0
BBX 6 9 0 -2
BITMAP
CC
CC
CC
CC
CC
FC
F8
C0
C0
ENDCHAR
STARTCHAR 182
ENCODING 182
SWIDTH 576 0
DWIDTH 8 0
BBX 7 10 0 0
BITMAP
7E
FE
F6
F6
76
36
36
36
36
36
ENDCHAR
STARTCHAR 183
ENCODING 183
SWIDTH 288 0
DWIDTH 4 0
BBX 3 2 0 4
BITMAP
E0
E0
ENDCHAR
STARTCHAR 184
ENCODING 184
SWIDTH 360 0
DWIDTH 5 0
BBX 4 4 0 -4
BITMAP
30
30
F0
E0
ENDCHAR
STARTCHAR 185
ENCODING 185
SWIDTH 360 0
DWIDTH 5 0
BBX 4 7 0 4
BITMAP
60
E0
E0
60
60
F0
F0
ENDCHAR
STARTCHAR 186
ENCODING 186
SWIDTH 432 0
DWIDTH 6 0
BBX 5 8 0 2
BITMAP
70
F8
D8
F8
70
00
F8
F8
ENDCHAR
STARTCHAR 187
ENCODING 187
SWIDTH 720 0
DWIDTH 10 0
BBX 9 8 0 1
BITMAP
CC00
EE00
7700
3B80
3B80
7700
EE00
CC00
ENDCHAR
STARTCHAR 188
ENCODING 188
SWIDTH 648 0
DWIDTH 9 0
BBX 8 11 0 0
BITMAP
41
C1
42
44
48
49
15
25
47
81
81
ENDCHAR
STARTCHAR 189
ENCODING 189
SWIDTH 648 0
DWIDTH 9 0
BBX 8 11 0 0
BITMAP
41
C1
42
44
48
4A
15
21
42
84
87
ENDCHAR
STARTCHAR 190
ENCODING 190
SWIDTH 648 0
DWIDTH 9 0
BBX 8 11 0 0
BITMAP
41
A1
22
44
28
A9
55
25
47
81
81
ENDCHAR
STARTCHAR 191
ENCODING 191
SWIDTH 504 0
DWIDTH 7 0
BBX 6 10 0 0
BITMAP
30
30
00
30
30
70
E0
CC
FC
78
ENDCHAR
STARTCHAR 192
ENCODING 192
SWIDTH 504 0
DWIDTH 7 0
BBX 6 14 0 0
BITMAP
60
30
18
00
78
FC
CC
CC
FC
FC
CC
CC
CC
CC
ENDCHAR
STARTCHAR 193
ENCODING 193
SWIDTH 504 0
DWIDTH 7 0
BBX 6 14 0 0
BITMAP
18
30
60
00
78
FC
CC
CC
FC
FC
CC
CC
CC
CC
ENDCHAR
STARTCHAR 194
ENCODING 194
SWIDTH 504 0
DWIDTH 7 0
BBX 6 14 0 0
BITMAP
30
78
CC
00
78
FC
CC
CC
FC
FC
CC
CC
CC
CC
ENDCHAR
STARTCHAR 195
ENCODING 195
SWIDTH 504 0
DWIDTH 7 0
BBX 6 14 0 0
BITMAP
6C
FC
D8
00
78
FC
CC
CC
FC
FC
CC
CC
CC
CC
ENDCHAR
STARTCHAR 196
ENCODING 196
SWIDTH 504 0
DWIDTH 7 0
BBX 6 13 0 0
BITMAP
CC
CC
00
78
FC
CC
CC
FC
FC
CC
CC
CC
CC
ENDCHAR
STARTCHAR 197
ENCODING 197
SWIDTH 576 0
DWIDTH 8 0
BBX 6 14 0 0
BITMAP
78
CC
CC
78
78
FC
CC
CC
FC
FC
CC
CC
CC
CC
ENDCHAR
STARTCHAR 198
ENCODING 198
SWIDTH 792 0
DWIDTH 11 0
BBX 10 10 0 0
BITMAP
7FC0
FFC0
CC00
CC00
FF00
FF00
CC00
CC00
CFC0
CFC0
ENDCHAR
STARTCHAR 199
ENCODING 199
SWIDTH 504 0
DWIDTH 7 0
BBX 6 14 0 -4
BITMAP
78
FC
CC
C0
C0
C0
C0
CC
FC
7C
18
18
78
70
ENDCHAR
STARTCHAR 200
ENCODING 200
SWIDTH 504 0
DWIDTH 7 0
BBX 6 14 0 0
BITMAP
60
30
18
00
FC
FC
C0
C0
F0
F0
C0
C0
FC
FC
ENDCHAR
STARTCHAR 201
ENCODING 201
SWIDTH 720 0
DWIDTH 10 0
BBX 6 14 0 0
BITMAP
18
30
60
00
FC
FC
C0
C0
F0
F0
C0
C0
FC
FC
ENDCHAR
STARTCHAR 202
ENCODING 202
SWIDTH 504 0
DWIDTH 7 0
BBX 6 14 0 0
BITMAP
30
78
CC
00
FC
FC
C0
C0
F0
F0
C0
C0
FC
FC
ENDCHAR
STARTCHAR 203
ENCODING 203
SWIDTH 504 0
DWIDTH 7 0
BBX 6 13 0 0
BITMAP
CC
CC
00
FC
FC
C0
C0
F0
F0
C0
C0
FC
FC
ENDCHAR
STARTCHAR 204
ENCODING 204
SWIDTH 360 0
DWIDTH 5 0
BBX 4 14 0 0
BITMAP
C0
60
30
00
60
60
60
60
60
60
60
60
60
60
ENDCHAR
STARTCHAR 205
ENCODING 205
SWIDTH 360 0
DWIDTH 5 0
BBX 4 14 0 0
BITMAP
30
60
C0
00
60
60
60
60
60
60
60
60
60
60
ENDCHAR
STARTCHAR 206
ENCODING 206
SWIDTH 504 0
DWIDTH 7 0
BBX 6 14 0 0
BITMAP
30
78
CC
00
30
30
30
30
30
30
30
30
30
30
ENDCHAR
STARTCHAR 207
ENCODING 207
SWIDTH 504 0
DWIDTH 7 0
BBX 6 13 0 0
BITMAP
CC
CC
00
30
30
30
30
30
30
30
30
30
30
ENDCHAR
STARTCHAR 208
ENCODING 208
SWIDTH 576 0
DWIDTH 8 0
BBX 7 10 0 0
BITMAP
7C
7E
66
66
F6
F6
66
66
7E
7C
ENDCHAR
STARTCHAR 209
ENCODING 209
SWIDTH 576 0
DWIDTH 8 0
BBX 7 14 0 0
BITMAP
76
FE
DC
00
C6
C6
E6
F6
FE
DE
CE
C6
C6
C6
ENDCHAR
STARTCHAR 210
ENCODING 210
SWIDTH 504 0
DWIDTH 7 0
BBX 6 14 0 0
BITMAP
60
30
18
00
78
FC
CC
CC
CC
CC
CC
CC
FC
78
ENDCHAR
STARTCHAR 211
ENCODING 211
SWIDTH 504 0
DWIDTH 7 0
BBX 6 14 0 0
BITMAP
18
30
60
00
78
FC
CC
CC
CC
CC
CC
CC
FC
78
ENDCHAR
STARTCHAR 212
ENCODING 212
SWIDTH 504 0
DWIDTH 7 0
BBX 6 14 0 0
BITMAP
30
78
CC
00
78
FC
CC
CC
CC
CC
CC
CC
FC
78
ENDCHAR
STARTCHAR 213
ENCODING 213
SWIDTH 504 0
DWIDTH 7 0
BBX 6 14 0 0
BITMAP
6C
FC
D8
00
78
FC
CC
CC
CC
CC
CC
CC
FC
78
ENDCHAR
STARTCHAR 214
ENCODING 214
SWIDTH 504 0
DWIDTH 7 0
BBX 6 13 0 0
BITMAP
CC
CC
00
78
FC
CC
CC
CC
CC
CC
CC
FC
78
ENDCHAR
STARTCHAR 215
ENCODING 215
SWIDTH 504 0
DWIDTH 7 0
BBX 6 5 0 2
BITMAP
CC
FC
78
FC
CC
ENDCHAR
STARTCHAR 216
ENCODING 216
SWIDTH 504 0
DWIDTH 7 0
BBX 6 12 0 -1
BITMAP
04
78
FC
CC
DC
DC
EC
EC
EC
FC
78
80
ENDCHAR
STARTCHAR 217
ENCODING 217
SWIDTH 504 0
DWIDTH 7 0
BBX 6 14 0 0
BITMAP
60
30
18
00
CC
CC
CC
CC
CC
CC
CC
CC
FC
78
ENDCHAR
STARTCHAR 218
ENCODING 218
SWIDTH 504 0
DWIDTH 7 0
BBX 6 14 0 0
BITMAP
18
30
60
00
CC
CC
CC
CC
CC
CC
CC
CC
FC
78
ENDCHAR
STARTCHAR 219
ENCODING 219
SWIDTH 504 0
DWIDTH 7 0
BBX 6 14 0 0
BITMAP
30
78
CC
00
CC
CC
CC
CC
CC
CC
CC
CC
FC
78
ENDCHAR
STARTCHAR 220
ENCODING 220
SWIDTH 504 0
DWIDTH 7 0
BBX 6 13 0 0
BITMAP
CC
CC
00
CC
CC
CC
CC
CC
CC
CC
CC
FC
78
ENDCHAR
STARTCHAR 221
ENCODING 221
SWIDTH 504 0
DWIDTH 7 0
BBX 6 14 0 0
BITMAP
18
30
60
00
CC
CC
CC
CC
78
78
30
30
30
30
ENDCHAR
STARTCHAR 222
ENCODING 222
SWIDTH 504 0
DWIDTH 7 0
BBX 6 10 0 0
BITMAP
C0
C0
F8
FC
CC
CC
FC
F8
C0
C0
ENDCHAR
STARTCHAR 223
ENCODING 223
SWIDTH 504 0
DWIDTH 7 0
BBX 6 10 0 0
BITMAP
78
FC
CC
CC
D8
DC
CC
CC
DC
D8
ENDCHAR
STARTCHAR 224
ENCODING 224
SWIDTH 504 0
DWIDTH 7 0
BBX 6 11 0 0
BITMAP
60
30
18
00
7C
FC
CC
CC
CC
FC
7C
ENDCHAR
STARTCHAR 225
ENCODING 225
SWIDTH 504 0
DWIDTH 7 0
BBX 6 11 0 0
BITMAP
18
30
60
00
7C
FC
CC
CC
CC
FC
7C
ENDCHAR
STARTCHAR 226
ENCODING 226
SWIDTH 504 0
DWIDTH 7 0
BBX 6 11 0 0
BITMAP
30
78
CC
00
7C
FC
CC
CC
CC
FC
7C
ENDCHAR
STARTCHAR 227
ENCODING 227
SWIDTH 504 0
DWIDTH 7 0
BBX 6 11 0 0
BITMAP
6C
FC
D8
00
7C
FC
CC
CC
CC
FC
7C
ENDCHAR
STARTCHAR 228
ENCODING 228
SWIDTH 504 0
DWIDTH 7 0
BBX 6 10 0 0
BITMAP
CC
CC
00
7C
FC
CC
CC
CC
FC
7C
ENDCHAR
STARTCHAR 229
ENCODING 229
SWIDTH 504 0
DWIDTH 7 0
BBX 6 11 0 0
BITMAP
78
CC
78
00
7C
FC
CC
CC
CC
FC
7C
ENDCHAR
STARTCHAR 230
ENCODING 230
SWIDTH 792 0
DWIDTH 11 0
BBX 10 7 0 0
BITMAP
7F80
7FC0
0CC0
7FC0
CC00
FF80
7F80
ENDCHAR
STARTCHAR 231
ENCODING 231
SWIDTH 648 0
DWIDTH 9 0
BBX 5 10 1 -3
BITMAP
78
F8
C0
C0
C0
F8
78
18
78
70
ENDCHAR
STARTCHAR 232
ENCODING 232
SWIDTH 504 0
DWIDTH 7 0
BBX 6 11 0 0
BITMAP
60
30
18
00
78
FC
CC
FC
C0
FC
7C
ENDCHAR
STARTCHAR 233
ENCODING 233
SWIDTH 504 0
DWIDTH 7 0
BBX 6 11 0 0
BITMAP
18
30
60
00
78
FC
CC
FC
C0
FC
7C
ENDCHAR
STARTCHAR 234
ENCODING 234
SWIDTH 504 0
DWIDTH 7 0
BBX 6 11 0 0
BITMAP
30
78
CC
00
78
FC
CC
FC
C0
FC
7C
ENDCHAR
STARTCHAR 235
ENCODING 235
SWIDTH 504 0
DWIDTH 7 0
BBX 6 10 0 0
BITMAP
CC
CC
00
78
FC
CC
FC
C0
FC
7C
ENDCHAR
STARTCHAR 236
ENCODING 236
SWIDTH 360 0
DWIDTH 5 0
BBX 4 11 0 0
BITMAP
C0
60
30
00
60
60
60
60
60
60
60
ENDCHAR
STARTCHAR 237
ENCODING 237
SWIDTH 360 0
DWIDTH 5 0
BBX 4 11 0 0
BITMAP
30
60
C0
00
60
60
60
60
60
60
60
ENDCHAR
STARTCHAR 238
ENCODING 238
SWIDTH 504 0
DWIDTH 7 0
BBX 6 11 0 0
BITMAP
30
78
CC
00
30
30
30
30
30
30
30
ENDCHAR
STARTCHAR 239
ENCODING 239
SWIDTH 504 0
DWIDTH 7 0
BBX 6 10 0 0
BITMAP
CC
CC
00
30
30
30
30
30
30
30
ENDCHAR
STARTCHAR 240
ENCODING 240
SWIDTH 504 0
DWIDTH 7 0
BBX 6 11 0 0
BITMAP
D8
70
70
D8
0C
7C
FC
CC
CC
FC
7C
ENDCHAR
STARTCHAR 241
ENCODING 241
SWIDTH 504 0
DWIDTH 7 0
BBX 6 11 0 0
BITMAP
6C
FC
D8
00
78
FC
CC
CC
CC
CC
CC
ENDCHAR
STARTCHAR 242
ENCODING 242
SWIDTH 504 0
DWIDTH 7 0
BBX 6 11 0 0
BITMAP
60
30
18
00
78
FC
CC
CC
CC
FC
78
ENDCHAR
STARTCHAR 243
ENCODING 243
SWIDTH 504 0
DWIDTH 7 0
BBX 6 11 0 0
BITMAP
18
30
60
00
78
FC
CC
CC
CC
FC
78
ENDCHAR
STARTCHAR 244
ENCODING 244
SWIDTH 504 0
DWIDTH 7 0
BBX 6 11 0 0
BITMAP
30
78
CC
00
78
FC
CC
CC
CC
FC
78
ENDCHAR
STARTCHAR 245
ENCODING 245
SWIDTH 504 0
DWIDTH 7 0
BBX 6 11 0 0
BITMAP
6C
FC
D8
00
78
FC
CC
CC
CC
FC
78
ENDCHAR
STARTCHAR 246
ENCODING 246
SWIDTH 504 0
DWIDTH 7 0
BBX 6 10 0 0
BITMAP
CC
CC
00
78
FC
CC
CC
CC
FC
78
ENDCHAR
STARTCHAR 247
ENCODING 247
SWIDTH 504 0
DWIDTH 7 0
BBX 6 8 0 1
BITMAP
30
30
00
FC
FC
00
30
30
ENDCHAR
STARTCHAR 248
ENCODING 248
SWIDTH 648 0
DWIDTH 9 0
BBX 8 10 0 -1
BITMAP
01
3E
7E
6E
6E
76
76
7E
7C
80
ENDCHAR
STARTCHAR 249
ENCODING 249
SWIDTH 504 0
DWIDTH 7 0
BBX 6 11 0 0
BITMAP
60
30
18
00
CC
CC
CC
CC
CC
FC
78
ENDCHAR
STARTCHAR 250
ENCODING 250
SWIDTH 504 0
DWIDTH 7 0
BBX 6 11 0 0
BITMAP
18
30
60
00
CC
CC
CC
CC
CC
FC
78
ENDCHAR
STARTCHAR 251
ENCODING 251
SWIDTH 504 0
DWIDTH 7 0
BBX 6 11 0 0
BITMAP
30
78
CC
00
CC
CC
CC
CC
CC
FC
78
ENDCHAR
STARTCHAR 252
ENCODING 252
SWIDTH 504 0
DWIDTH 7 0
BBX 6 10 0 0
BITMAP
CC
CC
00
CC
CC
CC
CC
CC
FC
78
ENDCHAR
STARTCHAR 253
ENCODING 253
SWIDTH 504 0
DWIDTH 7 0
BBX 6 14 0 -3
BITMAP
18
30
60
00
CC
CC
CC
CC
CC
FC
78
30
30
30
ENDCHAR
STARTCHAR 254
ENCODING 254
SWIDTH 504 0
DWIDTH 7 0
BBX 6 11 0 -2
BITMAP
C0
C0
F8
FC
CC
CC
CC
FC
F8
C0
C0
ENDCHAR
STARTCHAR 255
ENCODING 255
SWIDTH 504 0
DWIDTH 7 0
BBX 6 13 0 -3
BITMAP
CC
CC
00
CC
CC
CC
CC
CC
78
78
30
30
30
ENDCHAR
ENDFONT
